<?xml version="1.0" encoding="UTF-8" standalone="no"?><!DOCTYPE svg PUBLIC "-//W3C//DTD SVG 1.1//EN" "http://www.w3.org/Graphics/SVG/1.1/DTD/svg11.dtd"><svg width="100%" height="100%" viewBox="0 0 4055 2975" version="1.1" xmlns="http://www.w3.org/2000/svg" xmlns:xlink="http://www.w3.org/1999/xlink" xml:space="preserve" xmlns:serif="http://www.serif.com/" style="fill-rule:evenodd;clip-rule:evenodd;stroke-linejoin:round;stroke-miterlimit:2;"><rect id="Artboard1" x="0" y="-0" width="4054.2" height="2974.79" style="fill:none;"/><g><path d="M1699.43,1755.65c-4.906,0.224 -9.148,0.224 -13.96,-0.905c-6.782,-1.592 -14.059,-4.564 -17.349,-11.196c-8.646,-17.428 17.369,-59.518 24.178,-77.221c8.759,-0.853 24.728,5.83 32.882,9.254c-0.546,17.362 -0.189,37.078 -5.174,53.794c-3.848,12.907 -8.786,19.81 -20.577,26.274Z" style="fill:#074c5f;fill-rule:nonzero;"/><path d="M2091.48,297.18c-2.685,0.314 -2.485,0.346 -5.685,0.412c-10.088,0.209 -17.098,-1.568 -24.143,-9.034c-4.462,-4.733 -6.727,-10.19 -6.141,-16.736c2.037,-22.857 40.867,-49.85 57.78,-63.025c4.014,-1.309 8.579,-1.997 12.809,-1.663c7.1,0.563 14.566,5.005 18.474,10.953c3.058,4.651 3.377,9.797 2.48,15.14c-3.204,19.131 -39.86,52.508 -55.574,63.953Z" style="fill:#074c5f;fill-rule:nonzero;"/><path d="M2211.32,326.5c-4.961,0.311 -9.471,0.342 -14.326,-0.928c-5.461,-1.427 -9.125,-4.607 -11.625,-9.651c-3.814,-7.694 -4.674,-16.713 -1.317,-24.693c9.365,-22.284 140.21,-65.301 167.88,-74.289c3.652,0.055 7.426,0.456 10.929,1.569c7.053,2.249 14.141,6.849 17.043,13.933c2.056,5.02 1.706,10.804 -0.354,15.749c-2.595,6.224 -8.126,11.519 -14.09,14.543c-24.643,12.482 -54.777,19.81 -80.654,30.311c-24.972,10.135 -48.156,24.084 -73.486,33.456Z" style="fill:#095360;fill-rule:nonzero;"/><path d="M2360.35,416.939c-4.694,0.515 -10.831,1.281 -15.305,-0.657c-6.928,-3.003 -16.674,-13.622 -17.888,-21.387c-0.838,-5.35 1.356,-10.642 4.552,-14.813c22.146,-28.916 141.036,-55.614 179.23,-61.158c4.258,-0.153 9.18,-0.66 13.378,-0.023c5.925,0.9 11.217,5.744 14.551,10.532c3.672,5.276 5.539,11.173 3.852,17.609c-1.608,6.157 -6.671,12.624 -12.336,15.474c-17.727,8.905 -43.281,11.495 -62.781,16.716c-36.389,9.742 -73.097,21.78 -107.253,37.707Z" style="fill:#095360;fill-rule:nonzero;"/><path d="M1560.79,2396.52c-4.576,0.18 -8.991,0.129 -13.567,-0.177c-38.556,-2.568 -166.878,-25.952 -189.302,-53.55c-3.322,-4.093 -5.123,-8.818 -4.014,-14.142c2.016,-9.655 12.513,-18.544 20.636,-23.144c3.495,-0.295 7.033,-0.452 10.528,-0.035c25.979,3.078 71.037,23.926 101.38,30.744c20.463,4.599 73.843,4.21 86.408,20.144c3.735,4.734 5.06,10.855 4.061,16.752c-1.867,10.992 -7.17,17.302 -16.13,23.408Z" style="fill:#074c5f;fill-rule:nonzero;"/><path d="M1618.16,871.458c-2.253,-0.023 -4.1,0.036 -6.294,-0.216c-6.998,-0.806 -19.496,-5.736 -23.341,-12.034c-3.416,-5.591 -2.206,-12.364 -0.075,-18.14c3.071,-8.319 8.512,-15.725 14.472,-22.196c24.151,-26.227 112.124,-98.467 142.526,-113.005c1.246,0.078 2.5,0.102 3.742,0.236c9.263,0.994 16.638,5.331 22.492,12.576c4.065,5.036 5.862,10.654 4.816,17.137c-0.774,4.812 -3.872,9.353 -7.434,12.514c-21.022,18.655 -45.444,34.4 -67.365,52.135c-28.428,22.998 -54.95,48.242 -83.539,70.993Z" style="fill:#074c5f;fill-rule:nonzero;"/><path d="M1710.33,2395.81c-3.884,0.256 -7.922,-0.393 -11.609,-1.702c-5.882,-2.092 -10.989,-7.509 -13.489,-13.139c-3.141,-7.069 -2.316,-13.874 0.629,-20.793c2.634,-6.181 6.11,-12.298 12.596,-14.987c20.53,-8.511 48.671,-7.698 70.79,-12.235c37.513,-7.697 72.947,-20.109 108.629,-33.7c4.973,0.044 9.349,0.861 13.752,3.212c6.589,3.515 12.785,13.469 14,20.735c1.065,6.396 -1.074,12.663 -5.092,17.612c-24.386,30.056 -151.752,49.808 -190.206,54.997Z" style="fill:#095360;fill-rule:nonzero;"/><path d="M1377.19,426.995c-6.785,0.405 -13.221,0.386 -19.645,-2.182c-6.424,-2.567 -13.414,-8.366 -15.592,-15.128c-1.344,-4.167 -0.837,-8.378 0.881,-12.333c17.907,-41.118 239.789,-136.597 289.396,-157.732c4.442,-1.482 9.805,-2.296 14.487,-1.659c6.278,0.853 12.301,4.596 16.099,9.62c4.293,5.685 7.104,15.108 5.72,22.22c-1.702,8.72 -7.438,14.503 -15.12,18.458c-28.581,14.723 -62.517,24.029 -92.337,36.893c-32.241,13.925 -63.721,29.395 -94.441,46.41c-30.723,17.015 -60.539,35.493 -89.448,55.433Z" style="fill:#095360;fill-rule:nonzero;"/><path d="M2280.03,572.599c-5.732,-0.224 -11.425,-0.813 -16.394,-3.923c-6.487,-4.053 -16.292,-11.7 -17.196,-19.94c-0.606,-5.496 2.099,-11.079 5.335,-15.337c25.64,-33.716 167.042,-77.791 210.083,-88.779c34.762,-8.877 70.341,-15.038 105.704,-21.002c4.215,-0.664 7.454,-1.097 11.751,-0.535c5.327,0.692 10.54,4.298 13.67,8.567c5.103,6.963 6.813,18.352 4.411,26.604c-2.206,7.564 -8.96,10.792 -15.62,13.642c-22.334,9.565 -52.433,8.688 -76.666,14.102c-79.116,17.676 -155.15,45.404 -225.078,86.601Z" style="fill:#095360;fill-rule:nonzero;"/><path d="M1023.56,2240.92c-3.967,0.468 -7.906,0.825 -11.908,0.664c-12.27,-0.483 -20.774,-9.333 -28.586,-17.943c-67.396,-74.284 -115.395,-170.981 -151.092,-263.822c-4.718,-12.266 -16.905,-37.293 -14.306,-49.96c1.462,-7.14 9.576,-13.112 14.951,-17.2c5.276,-1.215 10.316,-2.343 15.765,-1.86c6.636,0.594 10.721,3.711 13.945,9.27c15.776,27.23 23.281,61.669 35.72,90.981c31.271,73.679 72.822,137.49 124.037,198.415c7.56,8.995 17.754,20.522 15.419,33.217c-1.596,8.673 -7.206,13.284 -13.945,18.238Z" style="fill:#074c5f;fill-rule:nonzero;"/><path d="M1469.72,840.05c-4.281,0.043 -8.723,0.177 -12.977,-0.366c-6.479,-0.825 -15.156,-6.502 -18.254,-12.277c-2.976,-5.548 -3.448,-10.89 -1.584,-16.917c11.02,-35.658 210.956,-185.599 251.921,-212.969c38.143,-25.219 77.489,-48.394 118.037,-69.524c1.62,-0.146 3.241,-0.26 4.864,-0.342c8.519,-0.385 14.471,1.927 20.608,7.934c5.355,5.244 9.361,11.9 8.61,19.657c-0.499,5.142 -2.854,9.384 -6.479,12.966c-10.1,9.982 -46.273,27.768 -60.422,36.484c-112.773,69.472 -207.705,144.57 -304.324,235.354Z" style="fill:#074c5f;fill-rule:nonzero;"/><path d="M2163.22,814.225c-7.391,-0.838 -15.061,-2.273 -21.206,-6.77c-5.327,-3.9 -9.891,-10.572 -10.524,-17.224c-0.724,-7.603 3.302,-14.983 7.863,-20.742c15.599,-19.712 42.644,-35.886 63.036,-50.562c7.383,-5.342 14.848,-10.564 22.393,-15.667c7.549,-5.105 15.174,-10.089 22.877,-14.951c7.706,-4.864 15.486,-9.604 23.341,-14.22c7.855,-4.615 15.782,-9.106 23.781,-13.473c7.997,-4.366 16.06,-8.605 24.19,-12.714c8.133,-4.11 16.329,-8.09 24.587,-11.94c8.256,-3.85 16.573,-7.569 24.949,-11.157c8.374,-3.588 16.803,-7.043 25.287,-10.363c8.487,-3.321 17.022,-6.507 25.606,-9.558c8.586,-3.048 17.218,-5.961 25.896,-8.739c8.678,-2.776 17.398,-5.415 26.159,-7.918c8.76,-2.501 17.558,-4.862 26.396,-7.085c8.835,-2.222 17.705,-4.305 26.608,-6.247c8.901,-1.939 17.83,-3.738 26.789,-5.398c8.958,-1.659 17.941,-3.175 26.95,-4.548c9.008,-1.376 18.034,-2.608 27.079,-3.696c2.536,-0.361 4.942,-0.554 7.505,-0.338c7.808,0.653 11.991,3.141 16.89,9.314c4.312,5.429 8.767,12.549 7.186,19.826c-4.816,22.142 -38.661,24.174 -56.585,27.135c-8.135,1.289 -16.25,2.698 -24.343,4.226c-8.091,1.53 -16.16,3.178 -24.206,4.942c-8.044,1.766 -16.06,3.651 -24.048,5.653c-7.992,2.002 -15.95,4.121 -23.876,6.357c-7.928,2.236 -15.821,4.587 -23.679,7.053c-7.857,2.469 -15.677,5.052 -23.459,7.749c-7.781,2.697 -15.522,5.509 -23.223,8.437c-7.697,2.925 -15.352,5.962 -22.963,9.113c-7.609,3.15 -15.17,6.412 -22.684,9.785c-7.515,3.373 -14.978,6.855 -22.39,10.446c-7.412,3.593 -14.769,7.294 -22.071,11.102c-7.302,3.808 -14.546,7.724 -21.733,11.747c-7.189,4.021 -14.317,8.148 -21.383,12.38c-7.066,4.231 -14.068,8.564 -21.005,13.002c-6.94,4.437 -13.813,8.975 -20.617,13.614c-6.806,4.639 -13.542,9.378 -20.207,14.216c-19.185,13.862 -34.565,32.041 -53.511,46.021c-0.546,0.405 -1.104,0.794 -1.655,1.192Z" style="fill:#095360;fill-rule:nonzero;"/><path d="M1402.65,717.665c-3.09,0.102 -6.166,-0.062 -9.227,-0.492c-3.064,-0.427 -6.067,-1.113 -9.011,-2.06c-5.987,-1.934 -12.093,-4.823 -14.306,-11.275c-1.801,-5.252 -0.22,-11.311 1.938,-16.205c10.01,-22.696 40.061,-42.515 58.948,-58.319c104.859,-87.749 217.439,-160.378 339.356,-222.353c33.74,-17.149 67.986,-35.477 103.57,-48.522c3.77,-0.193 7.717,-0.468 11.472,-0.035c6.64,0.762 12.651,6.07 16.244,11.405c4.388,6.51 6.31,14.577 4.333,22.275c-1.349,5.241 -5.029,10.816 -9.526,13.835c-17.971,12.058 -47.905,20.774 -68.222,30.119c-51.341,23.612 -101.447,48.828 -149.496,78.628c-55.976,34.714 -114.625,70.569 -166.406,111.177c-20.957,16.732 -41.488,33.971 -61.593,51.717c-15.231,13.454 -30.626,29.871 -48.074,40.105Z" style="fill:#074c5f;fill-rule:nonzero;"/><path d="M1378.3,580.403c-5.897,-0.322 -10.973,-0.924 -16.496,-3.165c-6.102,-2.476 -10.367,-6.278 -12.486,-12.694c-2.41,-7.301 -2.296,-16.319 1.836,-22.96c11.495,-18.481 49.374,-42.848 67.545,-56.506c147.126,-110.595 334.887,-211.97 513.149,-260.331c2.328,-0.137 4.651,-0.263 6.982,-0.196c7.038,0.2 12.632,4.116 16.961,9.407c4.662,5.701 7.827,12.966 6.699,20.456c-2.961,19.684 -38.662,26.364 -54.568,31.734c-18.612,6.131 -37.107,12.595 -55.485,19.394c-18.38,6.799 -36.63,13.928 -54.749,21.387c-18.121,7.459 -36.101,15.243 -53.939,23.352c-17.841,8.11 -35.528,16.539 -53.062,25.287c-17.534,8.749 -34.905,17.811 -52.111,27.186c-17.207,9.378 -34.239,19.062 -51.097,29.053c-16.855,9.991 -33.526,20.285 -50.011,30.882c-16.486,10.593 -32.774,21.482 -48.864,32.666c-38.099,26.741 -72.558,58.094 -110.304,85.048Z" style="fill:#095360;fill-rule:nonzero;"/><path d="M2001.27,2294.7c-4.139,0.255 -8.413,0.751 -12.458,-0.515c-7.356,-2.312 -14.625,-9.892 -17.342,-17c-1.175,-3.074 -1.765,-6.569 -1.395,-9.852c2.119,-18.757 41.582,-39.695 56.529,-50.247c69.131,-48.817 127.956,-115.458 174.06,-186.137c116.178,-178.102 99.906,-393.072 183.204,-581.961c64.951,-147.287 176.388,-270.321 328.675,-329.308c3.169,-0.169 5.917,-0.153 9.027,0.59c6.671,1.6 12.698,6.455 16.213,12.278c0.466,0.778 0.888,1.579 1.266,2.402c0.38,0.826 0.714,1.668 1.002,2.528c0.289,0.86 0.53,1.732 0.724,2.618c0.194,0.886 0.339,1.78 0.436,2.681c0.097,0.902 0.146,1.806 0.146,2.713c-0,0.907 -0.049,1.811 -0.146,2.713c-0.097,0.901 -0.242,1.795 -0.436,2.681c-0.194,0.886 -0.435,1.759 -0.724,2.618c-6.184,18.219 -59.557,35.033 -77.052,44.535c-42.168,22.897 -80.362,56.243 -114.239,90.089c-108.271,108.165 -152.535,248.096 -181.565,394.408c-13.355,67.314 -24.559,135.394 -44.275,201.246c-2.831,9.165 -5.84,18.272 -9.027,27.319c-3.19,9.045 -6.555,18.026 -10.096,26.942c-3.538,8.914 -7.252,17.756 -11.141,26.525c-3.887,8.77 -7.945,17.46 -12.172,26.07c-4.228,8.61 -8.623,17.133 -13.186,25.57c-4.563,8.437 -9.29,16.78 -14.181,25.031c-4.89,8.253 -9.941,16.407 -15.151,24.461c-5.211,8.052 -10.577,16 -16.1,23.844c-5.522,7.842 -11.196,15.574 -17.023,23.196c-5.826,7.619 -11.799,15.121 -17.919,22.507c-6.12,7.386 -12.383,14.65 -18.788,21.792c-6.403,7.14 -12.945,14.151 -19.626,21.033c-6.681,6.883 -13.494,13.633 -20.439,20.251c-6.946,6.615 -14.019,13.092 -21.218,19.429c-7.2,6.34 -14.52,12.536 -21.961,18.588c-7.444,6.049 -15.003,11.951 -22.677,17.707c-19.559,14.479 -39.499,29.085 -60.945,40.655Z" style="fill:#095360;fill-rule:nonzero;"/><path d="M1666.75,1900.38c-13.359,0.456 -36.221,3.841 -48.349,-0.747c-5.225,-1.977 -5.708,-3.727 -7.415,-8.488c2.218,-14.927 11.861,-29.859 18.564,-43.269c27.929,1.419 54.462,2.41 80.563,-9.2c1.79,-0.807 3.561,-1.656 5.312,-2.547c1.75,-0.891 3.479,-1.823 5.185,-2.795c1.706,-0.973 3.389,-1.984 5.048,-3.035c1.659,-1.051 3.293,-2.14 4.903,-3.267c1.609,-1.13 3.189,-2.295 4.741,-3.495c1.554,-1.203 3.079,-2.441 4.576,-3.712c1.497,-1.273 2.962,-2.581 4.395,-3.923c1.434,-1.342 2.836,-2.717 4.207,-4.124c1.371,-1.408 2.707,-2.845 4.01,-4.313c1.303,-1.47 2.571,-2.971 3.806,-4.502c1.231,-1.528 2.427,-3.084 3.585,-4.67c1.161,-1.586 2.283,-3.198 3.365,-4.836c1.085,-1.638 2.131,-3.3 3.138,-4.985c1.006,-1.688 1.972,-3.398 2.897,-5.13c0.928,-1.733 1.814,-3.485 2.658,-5.257c0.844,-1.774 1.646,-3.567 2.406,-5.378c14.719,-34.152 16.111,-74.654 21.19,-111.161c4.264,-30.342 9.331,-60.55 15.199,-90.623c9.265,-46.627 20.498,-92.774 33.7,-138.441c13.199,-45.667 28.319,-90.69 45.361,-135.068c64.121,-170.058 181.738,-348.886 324.519,-463.153c69.759,-55.83 151.792,-102.126 233.004,-138.921c2.621,-1.019 5.273,-1.946 7.957,-2.779c13.469,-4.305 23.262,-5.115 36.067,2.095c5.96,3.358 12.116,9.259 13.005,16.375c0.975,7.847 -4.057,15.678 -9.939,20.443c-17.263,13.988 -46.882,20.947 -67.475,30.005c-21.704,9.739 -42.859,20.551 -63.465,32.434c-114.058,65.376 -207.579,152.028 -284.737,258.283c-84.506,116.366 -145.172,254.992 -185.162,392.666c-17.851,62.68 -32.024,126.182 -42.518,190.505c-7.065,45.306 -9.4,94.897 -22.948,138.63c-7.025,22.68 -17.939,43.843 -33.177,62.097c-32.855,39.353 -77.669,59.918 -128.176,64.286Z" style="fill:#074c5f;fill-rule:nonzero;"/><path d="M1681.03,2024.26c-42.302,2.446 -83.55,0.826 -124.877,-9.101c5.748,-16.366 13.854,-32.096 21.174,-47.814c58.535,13.3 117.035,11.248 173.321,-10.375c52.04,-19.987 94.299,-51.537 121.878,-100.625c34.298,-61.047 39.92,-137.206 50.755,-205.259c5.674,-34.12 11.887,-68.14 18.639,-102.06c17.27,-87.258 42.746,-175.703 79.002,-257.044c110.311,-247.515 301.225,-432.272 554.865,-529.704c22.582,-8.484 46.843,-19.988 70.478,-24.713c8.355,-1.671 16.469,-2.041 23.695,3.058c5.913,4.172 14.393,11.24 14.326,19.237c-0.177,21.407 -51.745,35.119 -67.813,41.087c-174.547,64.837 -308.168,152.96 -424.558,300.483c-100.13,126.902 -161.495,275.506 -197.082,432.385c-27.516,121.297 -21.942,288.634 -104.01,387.509c-52.032,62.682 -129.965,95.683 -209.793,102.936Z" style="fill:#095360;fill-rule:nonzero;"/><path d="M1678.59,2146.1c-59.88,3.298 -119.401,-4.431 -177.543,-18.474l21.505,-46.784c104.43,19.984 202.283,22.571 300.824,-23.687c16.916,-8.038 33.246,-17.127 48.99,-27.268c15.744,-10.143 30.772,-21.253 45.085,-33.33c30.952,-25.991 57.879,-55.544 77.662,-90.946c50.585,-90.529 58.126,-228.534 75.416,-329.736c4.875,-27.612 10.961,-54.954 18.258,-82.025c7.299,-27.075 15.782,-53.772 25.448,-80.091c12.372,-34.133 27.775,-66.74 43.587,-99.383c88.965,-183.668 220.553,-318.602 406.124,-405.215c20.817,-10.242 90.785,-40.816 110.968,-44.673c1.088,-0.212 2.185,-0.368 3.291,-0.468c1.106,-0.1 2.213,-0.143 3.322,-0.13c1.109,0.016 2.215,0.088 3.318,0.217c1.101,0.128 2.193,0.314 3.275,0.558c1.083,0.241 2.151,0.537 3.204,0.888c1.051,0.351 2.083,0.756 3.094,1.215c1.009,0.459 1.994,0.967 2.953,1.525c0.956,0.561 1.883,1.169 2.779,1.825c5.386,4.029 9.805,10.284 10.171,17.192c0.487,9.215 -5.013,16.343 -12.27,21.218c-17.798,11.959 -47.13,17.813 -67.624,25.695c-22.989,9.024 -45.454,19.203 -67.397,30.536c-115.82,58.389 -210.614,139.679 -286.105,245.081c-74.292,103.722 -123.234,219.88 -151.553,343.991c-34.69,152.036 -23.309,312.01 -132.013,437.996c-77.818,90.195 -196.571,145.447 -314.769,154.273Z" style="fill:#095360;fill-rule:nonzero;"/><path d="M1665.6,2271.89c-75.448,2.901 -147.539,-4.305 -220.203,-25.617l19.472,-45.676c13.272,3.425 26.576,6.884 40.014,9.613c146.599,29.776 311.998,4.619 437.037,-79.478c3.381,-2.288 6.734,-4.616 10.06,-6.982c3.326,-2.37 6.623,-4.776 9.892,-7.218c3.27,-2.446 6.511,-4.928 9.722,-7.446c3.213,-2.519 6.396,-5.076 9.549,-7.671c3.151,-2.594 6.272,-5.225 9.365,-7.89c3.09,-2.668 6.149,-5.372 9.176,-8.111c3.027,-2.736 6.023,-5.509 8.987,-8.318c2.962,-2.807 5.892,-5.65 8.791,-8.528c2.896,-2.875 5.758,-5.784 8.586,-8.727c2.828,-2.944 5.622,-5.92 8.382,-8.929c2.76,-3.009 5.484,-6.049 8.173,-9.121c2.687,-3.074 5.338,-6.177 7.954,-9.309c2.618,-3.135 5.197,-6.3 7.737,-9.495c2.542,-3.195 5.048,-6.418 7.516,-9.671c2.467,-3.252 4.895,-6.533 7.285,-9.84c2.391,-3.311 4.742,-6.648 7.053,-10.014c2.312,-3.362 4.584,-6.752 6.817,-10.17c2.233,-3.418 4.427,-6.862 6.582,-10.332c2.151,-3.467 4.263,-6.96 6.333,-10.477c2.073,-3.517 4.105,-7.06 6.094,-10.627c1.987,-3.564 3.933,-7.152 5.838,-10.764c1.905,-3.609 3.768,-7.24 5.587,-10.894c1.821,-3.654 3.599,-7.328 5.334,-11.024c1.733,-3.698 3.423,-7.414 5.072,-11.149c1.649,-3.735 3.253,-7.488 4.812,-11.26c1.56,-3.771 3.074,-7.561 4.545,-11.37c1.473,-3.808 2.9,-7.633 4.281,-11.475c1.384,-3.84 2.722,-7.697 4.014,-11.57c1.292,-3.872 2.539,-7.759 3.739,-11.661c1.203,-3.903 2.359,-7.817 3.467,-11.743c1.112,-3.929 2.176,-7.871 3.193,-11.826c1.019,-3.952 1.992,-7.917 2.917,-11.893c17.542,-72.79 25.271,-147.982 39.908,-221.453c46.583,-233.837 159.12,-405.026 357.865,-537.551c44.37,-26.321 104.379,-54.93 153.817,-69.507c5.123,2.06 10.096,4.088 14.413,7.615c5.071,4.144 10.17,10.284 10.174,17.172c0.012,19.221 -25.57,29.27 -40.171,34.919c-156.081,60.414 -254.477,144.287 -343.276,285.138c-10.051,15.763 -19.459,31.901 -28.224,48.416c-8.767,16.512 -16.862,33.346 -24.284,50.503c-7.425,17.159 -14.155,34.586 -20.188,52.28c-6.036,17.694 -11.358,35.6 -15.965,53.719c-52.752,203.982 -31.224,367.309 -184.274,539.529c-106.612,119.967 -253.71,186.663 -412.968,195.883Z" style="fill:#095360;fill-rule:nonzero;"/><path d="M1665.09,2523.51c-38.064,3.2 -78.966,1.124 -116.971,-2.811c-15.217,-1.602 -30.378,-3.619 -45.483,-6.051c-15.104,-2.432 -30.131,-5.275 -45.081,-8.527c-14.95,-3.255 -29.799,-6.917 -44.547,-10.985c-14.751,-4.067 -29.379,-8.536 -43.883,-13.406c-14.504,-4.869 -28.864,-10.132 -43.08,-15.788c-14.216,-5.654 -28.267,-11.694 -42.153,-18.12c-13.886,-6.424 -27.586,-13.224 -41.099,-20.4c-13.514,-7.174 -26.82,-14.713 -39.92,-22.618c-16.795,-10.336 -39.224,-21.992 -51.246,-37.71c-4.486,-5.862 -7.588,-13.041 -5.803,-20.561c1.522,-6.424 6.495,-12.003 11.893,-15.557c2.925,-1.922 6.44,-3.397 9.966,-3.641c5.292,-0.369 8.995,1.223 13.697,3.476c12.443,5.956 24.064,14.817 35.697,22.283c21.906,14.059 44.146,27.681 67.507,39.204c13.836,6.812 27.85,13.235 42.042,19.268c14.193,6.036 28.541,11.674 43.046,16.913c14.504,5.239 29.143,10.074 43.918,14.503c14.771,4.43 29.654,8.446 44.649,12.05c6.245,1.407 12.507,2.738 18.784,3.99c6.277,1.253 12.569,2.429 18.875,3.527c6.306,1.098 12.625,2.119 18.957,3.062c6.332,0.944 12.675,1.809 19.028,2.595c6.351,0.786 12.712,1.495 19.083,2.127c6.369,0.632 12.746,1.185 19.131,1.659c6.384,0.475 12.773,0.87 19.165,1.187c6.393,0.32 12.789,0.56 19.19,0.72c6.4,0.16 12.8,0.242 19.201,0.248c6.4,0.002 12.8,-0.074 19.201,-0.228c6.4,-0.152 12.796,-0.384 19.189,-0.696c6.395,-0.312 12.785,-0.701 19.17,-1.168c6.384,-0.466 12.761,-1.013 19.13,-1.639c6.371,-0.624 12.734,-1.327 19.087,-2.108c6.353,-0.778 12.697,-1.636 19.032,-2.575c6.332,-0.935 12.651,-1.948 18.957,-3.039c6.309,-1.093 12.603,-2.262 18.883,-3.506c6.277,-1.248 12.538,-2.572 18.784,-3.971c6.249,-1.4 12.477,-2.875 18.686,-4.427c6.212,-1.554 12.403,-3.183 18.572,-4.887c6.17,-1.706 12.317,-3.487 18.443,-5.343c6.127,-1.855 12.23,-3.786 18.308,-5.791c6.081,-2.005 12.135,-4.084 18.163,-6.239c6.029,-2.154 12.029,-4.382 18.002,-6.683c5.974,-2.301 11.918,-4.676 17.833,-7.124c5.913,-2.448 11.797,-4.968 17.652,-7.56c5.853,-2.592 11.673,-5.256 17.46,-7.993c5.787,-2.733 11.54,-5.539 17.259,-8.417c5.719,-2.875 11.401,-5.821 17.046,-8.838c5.649,-3.014 11.257,-6.099 16.827,-9.254c5.572,-3.153 11.104,-6.374 16.594,-9.664c5.491,-3.289 10.942,-6.645 16.351,-10.068c5.074,-3.153 10.113,-6.361 15.117,-9.624c5.003,-3.261 9.97,-6.577 14.9,-9.95c4.932,-3.371 9.826,-6.795 14.68,-10.273c4.856,-3.478 9.673,-7.01 14.451,-10.595c4.778,-3.583 9.517,-7.219 14.216,-10.906c4.7,-3.688 9.359,-7.427 13.977,-11.217c4.615,-3.789 9.19,-7.63 13.724,-11.523c4.532,-3.889 9.022,-7.827 13.469,-11.814c4.445,-3.989 8.847,-8.026 13.206,-12.112c4.359,-4.084 8.671,-8.216 12.938,-12.396c4.27,-4.178 8.492,-8.403 12.667,-12.675c4.176,-4.272 8.304,-8.589 12.384,-12.95c4.081,-4.361 8.113,-8.767 12.097,-13.217c3.984,-4.451 7.919,-8.944 11.806,-13.481c3.885,-4.537 7.72,-9.116 11.508,-13.737c3.784,-4.618 7.519,-9.278 11.204,-13.98c3.683,-4.704 7.314,-9.447 10.894,-14.228c3.58,-4.78 7.107,-9.6 10.58,-14.459c3.475,-4.86 6.897,-9.757 10.265,-14.692c3.365,-4.933 6.676,-9.902 9.934,-14.908c3.258,-5.006 6.461,-10.047 9.609,-15.124c3.147,-5.077 6.24,-10.188 9.278,-15.333c3.035,-5.145 6.014,-10.321 8.936,-15.529c2.922,-5.21 5.787,-10.451 8.594,-15.722c2.81,-5.273 5.56,-10.575 8.252,-15.906c2.692,-5.334 5.325,-10.696 7.898,-16.088c2.574,-5.388 5.089,-10.806 7.545,-16.252c2.456,-5.444 4.851,-10.915 7.186,-16.414c2.336,-5.496 4.611,-11.018 6.825,-16.567c2.215,-5.546 4.369,-11.117 6.464,-16.712c2.091,-5.593 4.122,-11.21 6.093,-16.85c1.971,-5.641 3.879,-11.301 5.724,-16.98c27.442,-84.148 43.887,-171.913 64.087,-257.984c20.978,-88.398 46.984,-176.344 98.1,-252.617c30.886,-46.088 66.579,-84.73 110.914,-118.151c11.837,-8.929 25.589,-20.106 40.666,-22.484c6.507,-1.026 12.966,0.475 18.116,4.635c5.618,4.529 9.196,11.645 9.251,18.922c0.145,19.857 -30.017,31.99 -43.576,42.55c-6.673,5.286 -13.193,10.755 -19.559,16.405c-6.366,5.654 -12.567,11.483 -18.603,17.487c-6.036,6.005 -11.898,12.173 -17.586,18.506c-5.687,6.334 -11.191,12.825 -16.512,19.472c-5.323,6.644 -10.453,13.434 -15.391,20.369c-4.938,6.935 -9.677,14.003 -14.216,21.206c-4.54,7.202 -8.872,14.526 -12.997,21.972c-4.126,7.447 -8.038,15.004 -11.736,22.673c-36.173,74.835 -55.669,161.617 -73.34,242.463c-13.749,62.894 -27.025,127.637 -46.085,189.136c-4.722,14.916 -9.836,29.697 -15.34,44.343c-5.507,14.646 -11.397,29.136 -17.672,43.47c-6.272,14.334 -12.92,28.492 -19.944,42.475c-7.021,13.98 -14.41,27.766 -22.165,41.358c-7.753,13.59 -15.861,26.964 -24.324,40.124c-8.46,13.16 -17.264,26.088 -26.411,38.784c-9.147,12.693 -18.625,25.136 -28.432,37.329c-9.805,12.192 -19.927,24.116 -30.366,35.772c-4.729,5.249 -9.521,10.44 -14.378,15.572c-4.854,5.132 -9.771,10.203 -14.75,15.215c-4.98,5.008 -10.02,9.957 -15.121,14.845c-5.103,4.888 -10.263,9.712 -15.482,14.471c-5.221,4.762 -10.498,9.459 -15.831,14.09c-5.337,4.632 -10.728,9.197 -16.174,13.697c-5.447,4.498 -10.947,8.929 -16.5,13.293c-5.557,4.366 -11.166,8.662 -16.827,12.887c-5.661,4.227 -11.372,8.384 -17.133,12.47c-5.764,4.086 -11.575,8.102 -17.436,12.046c-5.863,3.945 -11.772,7.816 -17.727,11.614c-5.957,3.8 -11.959,7.526 -18.006,11.177c-6.046,3.653 -12.137,7.231 -18.273,10.732c-6.136,3.502 -12.313,6.929 -18.533,10.281c-6.219,3.35 -12.479,6.623 -18.78,9.821c-6.298,3.197 -12.636,6.318 -19.012,9.36c-6.377,3.043 -12.789,6.006 -19.237,8.889c-6.45,2.886 -12.933,5.692 -19.449,8.418c-6.518,2.725 -13.069,5.371 -19.653,7.937c-6.581,2.563 -13.194,5.047 -19.838,7.45c-6.644,2.404 -13.315,4.724 -20.015,6.963c-6.701,2.238 -13.428,4.395 -20.18,6.471c-6.754,2.073 -13.531,4.064 -20.333,5.972c-6.804,1.908 -13.629,3.732 -20.475,5.472c-6.846,1.741 -13.712,3.397 -20.6,4.97c-6.888,1.572 -13.794,3.059 -20.719,4.462c-6.924,1.402 -13.865,2.72 -20.821,3.955c-6.956,1.232 -13.926,2.378 -20.911,3.44c-6.985,1.061 -13.981,2.036 -20.99,2.925c-7.008,0.891 -14.026,1.695 -21.053,2.414c-7.029,0.718 -14.065,1.349 -21.107,1.895c-7.043,0.545 -14.092,1.003 -21.148,1.376Z" style="fill:#095360;fill-rule:nonzero;"/><path d="M1674.91,2659.16c-38.591,2.949 -78.51,1.506 -117.105,-1.116c-6.261,-0.427 -12.518,-0.918 -18.769,-1.471c-6.253,-0.55 -12.499,-1.163 -18.737,-1.839c-6.24,-0.674 -12.473,-1.411 -18.698,-2.21c-6.224,-0.799 -12.441,-1.66 -18.65,-2.583c-6.207,-0.922 -12.405,-1.905 -18.596,-2.948c-6.188,-1.046 -12.366,-2.152 -18.533,-3.319c-6.164,-1.169 -12.318,-2.396 -18.462,-3.683c-6.14,-1.29 -12.27,-2.641 -18.387,-4.054c-6.115,-1.41 -12.215,-2.88 -18.301,-4.411c-6.085,-1.53 -12.157,-3.123 -18.214,-4.776c-6.054,-1.652 -12.092,-3.363 -18.112,-5.135c-6.02,-1.772 -12.024,-3.602 -18.01,-5.492c-5.983,-1.89 -11.949,-3.84 -17.896,-5.85c-5.944,-2.008 -11.869,-4.074 -17.774,-6.2c-5.905,-2.125 -11.789,-4.31 -17.652,-6.553c-5.86,-2.244 -11.698,-4.544 -17.514,-6.9c-5.819,-2.359 -11.611,-4.775 -17.377,-7.25c-5.769,-2.471 -11.513,-5 -17.231,-7.587c-5.719,-2.587 -11.411,-5.23 -17.075,-7.93c-5.666,-2.7 -11.305,-5.455 -16.917,-8.268c-5.611,-2.812 -11.194,-5.679 -16.747,-8.602c-5.554,-2.919 -11.079,-5.896 -16.575,-8.928c-5.496,-3.032 -10.961,-6.119 -16.394,-9.258c-5.436,-3.14 -10.839,-6.333 -16.21,-9.577c-5.37,-3.248 -10.707,-6.548 -16.012,-9.9c-5.308,-3.355 -10.58,-6.76 -15.816,-10.217c-5.24,-3.458 -10.444,-6.966 -15.612,-10.525c-5.169,-3.559 -10.302,-7.171 -15.399,-10.835c-5.096,-3.661 -10.155,-7.373 -15.18,-11.134c-5.024,-3.763 -10.01,-7.576 -14.959,-11.436c-4.945,-3.861 -9.854,-7.77 -14.727,-11.728c-4.87,-3.957 -9.7,-7.963 -14.491,-12.018c-201.882,-169.094 -340.001,-425.352 -362.697,-688.239c-1.773,-20.518 -11.154,-81.176 4.552,-96.312c3.885,-3.742 8.756,-4.934 14,-4.937c7.167,-0.004 20.164,4.878 23.848,11.523c7.356,13.264 4.564,46.288 5.398,61.727c2.513,43.269 8.179,86.123 16.995,128.561c2.244,10.652 4.664,21.264 7.262,31.837c2.595,10.57 5.368,21.095 8.319,31.573c2.948,10.481 6.071,20.909 9.368,31.282c3.295,10.374 6.764,20.69 10.407,30.949c3.64,10.261 7.452,20.456 11.436,30.586c3.981,10.133 8.132,20.194 12.451,30.186c4.317,9.993 8.8,19.912 13.449,29.756c4.65,9.842 9.462,19.604 14.437,29.286c4.977,9.684 10.113,19.281 15.407,28.789c5.297,9.512 10.75,18.933 16.359,28.263c5.611,9.328 11.376,18.561 17.294,27.697c5.921,9.134 11.991,18.169 18.21,27.103c6.222,8.933 12.591,17.76 19.107,26.483c6.513,8.719 13.171,17.329 19.975,25.829c6.804,8.497 13.747,16.879 20.829,25.145c7.085,8.267 14.304,16.413 21.658,24.438c166.87,181.592 394.935,293.732 642.147,304.072c6.303,0.246 12.608,0.428 18.914,0.546c6.309,0.116 12.616,0.168 18.922,0.158c6.309,-0.011 12.616,-0.087 18.922,-0.228c6.306,-0.139 12.611,-0.344 18.914,-0.614c6.301,-0.267 12.6,-0.599 18.898,-0.994c6.293,-0.399 12.584,-0.86 18.871,-1.384c6.285,-0.524 12.565,-1.114 18.84,-1.769c6.274,-0.653 12.541,-1.37 18.8,-2.151c6.258,-0.781 12.509,-1.625 18.752,-2.532c6.244,-0.909 12.476,-1.881 18.698,-2.917c6.222,-1.035 12.433,-2.133 18.631,-3.294c6.202,-1.164 12.39,-2.389 18.565,-3.676c6.174,-1.29 12.336,-2.641 18.485,-4.053c6.146,-1.416 12.278,-2.893 18.395,-4.431c6.117,-1.539 12.219,-3.14 18.305,-4.804c6.083,-1.662 12.149,-3.387 18.198,-5.174c6.052,-1.788 12.083,-3.637 18.093,-5.547c6.012,-1.908 12.005,-3.879 17.978,-5.913c5.971,-2.031 11.92,-4.124 17.849,-6.279c5.928,-2.151 11.835,-4.365 17.719,-6.64c5.884,-2.272 11.744,-4.605 17.581,-6.998c5.837,-2.395 11.649,-4.849 17.436,-7.359c5.784,-2.511 11.544,-5.081 17.279,-7.71c5.734,-2.631 11.44,-5.319 17.117,-8.063c5.68,-2.747 11.33,-5.55 16.952,-8.41c5.622,-2.862 11.215,-5.78 16.78,-8.755c5.561,-2.975 11.093,-6.006 16.594,-9.093c5.499,-3.088 10.967,-6.23 16.406,-9.428c5.436,-3.2 10.839,-6.454 16.209,-9.761c5.371,-3.311 10.707,-6.675 16.009,-10.092c5.3,-3.418 10.565,-6.89 15.796,-10.415c5.232,-3.528 10.427,-7.106 15.585,-10.737c9.406,-6.497 18.693,-13.162 27.862,-19.995c9.165,-6.833 18.205,-13.829 27.118,-20.99c8.914,-7.157 17.697,-14.475 26.349,-21.953c8.649,-7.475 17.162,-15.103 25.538,-22.884c8.374,-7.785 16.605,-15.717 24.694,-23.797c8.091,-8.078 16.032,-16.3 23.824,-24.666c7.792,-8.369 15.431,-16.874 22.916,-25.515c7.486,-8.641 14.814,-17.415 21.985,-26.321c7.168,-8.906 14.174,-17.938 21.017,-27.095c6.844,-9.16 13.519,-18.44 20.027,-27.839c6.51,-9.401 12.848,-18.915 19.012,-28.542c6.165,-9.629 12.155,-19.366 17.971,-29.21c5.813,-9.845 11.448,-19.79 16.905,-29.836c5.454,-10.048 10.726,-20.192 15.816,-30.429c5.09,-10.237 9.994,-20.564 14.711,-30.98c4.718,-10.413 9.246,-20.908 13.583,-31.486c21.01,-50.307 38.521,-100.778 49.709,-154.21c9.617,-44.258 16.451,-88.941 20.503,-134.05c2.103,-23.148 0.401,-49.571 4.993,-72.059c1.486,-7.277 4.478,-13.957 11.432,-17.581c7.226,-3.759 17.271,-2.776 24.599,-0.055c9.093,8.055 11.405,18.701 12.129,30.503c1.946,31.766 -4.121,67.798 -7.824,99.583c-0.739,6.296 -1.537,12.582 -2.394,18.859c-0.855,6.28 -1.769,12.551 -2.744,18.812c-0.975,6.264 -2.009,12.518 -3.102,18.761c-1.093,6.24 -2.244,12.472 -3.452,18.694c-1.211,6.222 -2.479,12.431 -3.806,18.627c-1.326,6.199 -2.711,12.383 -4.155,18.552c-1.444,6.173 -2.945,12.329 -4.502,18.47c-1.559,6.144 -3.176,12.271 -4.851,18.384c-1.675,6.112 -3.406,12.208 -5.193,18.288c-1.791,6.081 -3.637,12.143 -5.54,18.187c-1.905,6.047 -3.866,12.074 -5.881,18.081c-2.016,6.007 -4.089,11.996 -6.22,17.966c-2.128,5.968 -4.314,11.917 -6.557,17.845c-2.241,5.929 -4.539,11.835 -6.892,17.719c-2.351,5.884 -4.758,11.746 -7.222,17.585c-2.464,5.84 -4.981,11.656 -7.552,17.448c-2.574,5.792 -5.202,11.56 -7.883,17.302c-2.681,5.743 -5.416,11.459 -8.205,17.149c-2.788,5.69 -5.631,11.354 -8.527,16.992c-2.894,5.637 -5.841,11.247 -8.842,16.83c-3.001,5.583 -6.054,11.136 -9.16,16.661c-3.106,5.523 -6.263,11.018 -9.471,16.485c-3.21,5.465 -6.471,10.898 -9.781,16.3c-3.313,5.404 -6.676,10.777 -10.088,16.118c-3.413,5.339 -6.875,10.647 -10.387,15.923c-3.512,5.276 -7.074,10.518 -10.686,15.725c-3.611,5.208 -7.271,10.382 -10.98,15.522c-3.709,5.139 -7.465,10.242 -11.268,15.309c-3.805,5.068 -7.658,10.101 -11.558,15.096c-3.897,4.998 -7.843,9.957 -11.837,14.877c-3.992,4.922 -8.031,9.806 -12.117,14.652c-4.084,4.846 -8.213,9.653 -12.388,14.421c-4.503,5.074 -9.055,10.102 -13.658,15.084c-4.602,4.983 -9.254,9.919 -13.956,14.81c-4.702,4.891 -9.451,9.734 -14.248,14.531c-4.796,4.796 -9.641,9.544 -14.534,14.243c-4.891,4.7 -9.829,9.35 -14.814,13.953c-4.985,4.602 -10.014,9.153 -15.089,13.654c-5.074,4.502 -10.193,8.953 -15.356,13.351c-5.163,4.4 -10.37,8.748 -15.619,13.044c-5.25,4.296 -10.543,8.539 -15.879,12.73c-5.334,4.191 -10.71,8.328 -16.127,12.412c-5.415,4.083 -10.872,8.113 -16.37,12.089c-5.497,3.976 -11.032,7.897 -16.607,11.763c-5.575,3.863 -11.187,7.671 -16.838,11.424c-5.651,3.753 -11.338,7.45 -17.062,11.091c-5.725,3.64 -11.484,7.224 -17.279,10.752c-5.795,3.525 -11.625,6.993 -17.491,10.403c-5.863,3.41 -11.76,6.761 -17.691,10.052c-5.932,3.292 -11.894,6.525 -17.888,9.699c-5.997,3.174 -12.024,6.288 -18.081,9.341c-6.057,3.054 -12.144,6.047 -18.261,8.98c-6.118,2.933 -12.262,5.805 -18.435,8.617c-6.175,2.81 -12.377,5.558 -18.607,8.245c-6.228,2.686 -12.482,5.311 -18.765,7.874c-6.28,2.563 -12.584,5.064 -18.914,7.501c-6.332,2.438 -12.687,4.812 -19.063,7.124c-6.38,2.309 -12.78,4.555 -19.201,6.739c-6.424,2.185 -12.868,4.306 -19.331,6.361c-6.466,2.054 -12.95,4.045 -19.453,5.971c-6.505,1.927 -13.029,3.788 -19.571,5.583c-6.541,1.798 -13.1,3.53 -19.676,5.197c-6.576,1.665 -13.168,3.265 -19.775,4.801c-6.608,1.536 -13.23,3.005 -19.866,4.407c-47,9.526 -94.924,13.433 -142.695,16.594Z" style="fill:#095360;fill-rule:nonzero;"/><path d="M1644.15,2794.69c-16.646,0.441 -33.292,0.482 -49.937,0.126c-16.648,-0.356 -33.277,-1.11 -49.886,-2.261c-16.612,-1.153 -33.185,-2.703 -49.721,-4.65c-16.538,-1.945 -33.018,-4.286 -49.441,-7.022c-16.426,-2.734 -32.775,-5.859 -49.049,-9.376c-16.276,-3.52 -32.458,-7.427 -48.545,-11.72c-16.087,-4.29 -32.063,-8.965 -47.928,-14.023c-15.864,-5.059 -31.598,-10.493 -47.201,-16.304c-289.262,-110.842 -512.987,-316.515 -639.099,-600.784c-56.42,-127.174 -90.112,-269.161 -92,-408.345c-0.216,-16.044 -4.12,-44.661 2.328,-59.262c3.086,-6.983 13.025,-15.875 20.471,-17.865c4.151,-1.108 7.961,-0.983 11.527,1.644c9.353,6.884 13.76,22.448 15.611,33.299c4.211,24.677 1.278,51.674 2.552,76.765c2.642,52.044 9.746,105.393 20.833,156.317c1.908,8.584 3.922,17.142 6.042,25.676c2.118,8.534 4.342,17.041 6.672,25.523c2.327,8.479 4.759,16.929 7.296,25.35c2.535,8.418 5.173,16.805 7.914,25.161c2.745,8.355 5.59,16.676 8.536,24.96c2.948,8.285 5.996,16.532 9.144,24.741c3.15,8.211 6.4,16.382 9.75,24.512c3.352,8.13 6.803,16.217 10.351,24.261c3.549,8.046 7.197,16.047 10.945,24.001c3.746,7.955 7.589,15.864 11.531,23.726c3.94,7.861 7.976,15.671 12.109,23.432c4.133,7.763 8.361,15.474 12.683,23.132c4.322,7.656 8.738,15.259 13.249,22.81c4.51,7.549 9.111,15.041 13.803,22.476c4.694,7.436 9.479,14.814 14.354,22.134c4.875,7.318 9.839,14.574 14.892,21.768c5.056,7.198 10.198,14.332 15.427,21.403c5.228,7.069 10.544,14.073 15.946,21.014c5.399,6.937 10.884,13.808 16.456,20.612c5.57,6.804 11.222,13.539 16.957,20.204c5.737,6.665 11.554,13.259 17.451,19.783c5.897,6.52 11.874,12.969 17.932,19.346c6.057,6.374 12.191,12.674 18.402,18.898c6.212,6.225 12.5,12.373 18.863,18.443c6.361,6.07 12.797,12.06 19.308,17.97c6.51,5.913 13.091,11.743 19.743,17.491c6.655,5.75 13.379,11.418 20.172,17.004c6.791,5.582 13.652,11.081 20.581,16.496c6.928,5.417 13.92,10.747 20.978,15.989c7.061,5.244 14.184,10.401 21.368,15.47c7.186,5.069 14.433,10.049 21.74,14.939c7.31,4.888 14.678,9.687 22.103,14.397c7.289,4.608 14.633,9.125 22.032,13.552c7.399,4.424 14.851,8.758 22.358,13.001c7.506,4.243 15.064,8.392 22.672,12.447c7.609,4.057 15.267,8.02 22.975,11.889c7.706,3.865 15.459,7.637 23.259,11.314c7.797,3.677 15.64,7.258 23.529,10.741c7.887,3.483 15.815,6.868 23.785,10.155c7.973,3.289 15.984,6.479 24.033,9.569c8.049,3.09 16.135,6.08 24.257,8.971c8.125,2.891 16.283,5.681 24.473,8.37c8.193,2.692 16.418,5.282 24.674,7.769c8.256,2.487 16.54,4.872 24.854,7.155c8.314,2.283 16.655,4.463 25.024,6.542c8.368,2.078 16.761,4.052 25.176,5.921c8.419,1.871 16.858,3.639 25.319,5.303c8.46,1.662 16.939,3.22 25.436,4.675c8.5,1.452 17.015,2.8 25.546,4.045c8.534,1.245 17.081,2.384 25.641,3.416c8.56,1.033 17.132,1.961 25.716,2.784c8.581,0.823 17.172,1.54 25.774,2.15c8.599,0.611 17.207,1.116 25.822,1.514c8.612,0.398 17.228,0.691 25.849,0.877c8.62,0.186 17.242,0.264 25.865,0.236c8.62,-0.027 17.24,-0.159 25.86,-0.398c8.618,-0.238 17.233,-0.583 25.846,-1.034c8.609,-0.45 17.213,-1.007 25.809,-1.67c8.597,-0.663 17.185,-1.433 25.763,-2.308c8.578,-0.876 17.144,-1.856 25.696,-2.941c8.555,-1.088 17.094,-2.279 25.617,-3.573c8.526,-1.298 17.033,-2.699 25.523,-4.203c8.489,-1.507 16.959,-3.118 25.409,-4.832c8.449,-1.717 16.877,-3.536 25.282,-5.457c8.715,-2.089 17.396,-4.309 26.042,-6.66c487.245,-133.361 796.546,-548.409 809.283,-1049.55c1.369,-53.691 -1.482,-108.908 -9.604,-162.029c-3.66,-23.954 -10.89,-47.909 -13.658,-71.851c-0.672,-5.822 -0.165,-12.006 3.358,-16.921c4.084,-5.692 12.663,-8.382 19.385,-9.105c5.732,-0.621 10.434,1.109 14.594,5.095c24.497,23.483 32.352,174.819 33.413,211.931c0.231,7.853 0.381,15.708 0.452,23.565c0.071,7.858 0.063,15.714 -0.023,23.569c-0.087,7.858 -0.255,15.713 -0.504,23.565c-0.246,7.853 -0.572,15.702 -0.979,23.549c-0.403,7.847 -0.888,15.689 -1.454,23.526c-0.564,7.837 -1.207,15.667 -1.931,23.49c-0.723,7.824 -1.525,15.639 -2.406,23.447c-0.88,7.805 -1.841,15.603 -2.881,23.392c-1.041,7.787 -2.159,15.563 -3.354,23.329c-1.198,7.766 -2.473,15.519 -3.825,23.259c-1.355,7.737 -2.787,15.461 -4.297,23.171c-1.51,7.711 -3.098,15.406 -4.765,23.086c-1.667,7.676 -3.411,15.336 -5.233,22.979c-1.819,7.643 -3.716,15.267 -5.692,22.873c-1.977,7.603 -4.029,15.187 -6.157,22.751c-2.131,7.561 -4.338,15.102 -6.621,22.621c-2.28,7.517 -4.637,15.012 -7.072,22.484c-2.432,7.47 -4.941,14.915 -7.525,22.335c-2.584,7.419 -5.244,14.812 -7.981,22.177c-2.733,7.367 -5.542,14.705 -8.425,22.012c-2.883,7.31 -5.839,14.589 -8.869,21.839c-3.03,7.247 -6.133,14.464 -9.31,21.65c-3.176,7.187 -6.425,14.341 -9.746,21.462c-3.32,7.121 -6.713,14.207 -10.178,21.257c-3.465,7.053 -7.001,14.069 -10.607,21.049c-3.609,6.979 -7.286,13.922 -11.032,20.829c-3.748,6.906 -7.565,13.773 -11.452,20.6c-3.887,6.828 -7.842,13.616 -11.865,20.365c-4.026,6.746 -8.118,13.453 -12.278,20.121c-4.159,6.665 -8.385,13.287 -12.679,19.865c-4.295,6.582 -8.655,13.117 -13.079,19.606c-4.427,6.492 -8.919,12.939 -13.477,19.339c-34.502,47.728 -74.961,92.381 -115.45,135.052c-56.923,59.994 -123.545,110.273 -193.466,154.018c-178.313,111.562 -366.259,169.428 -576.739,175.219Z" style="fill:#095360;fill-rule:nonzero;"/></g><path d="M704.635,1071.6l-97.335,-197.29l-180.838,-364.659c-22.79,-45.058 -44.468,-90.616 -66.956,-135.815c-13.036,-26.199 -28.939,-52.52 -39.29,-79.8c76.655,1.403 153.199,3.184 229.862,0.963l204.733,424.621c19.434,39.779 37.448,81.596 57.157,121.687c-2.126,4.111 -4.277,8.196 -6.455,12.251l-100.878,218.042Zm241.722,33.76c145.18,303.615 385.267,819.642 390.287,823.96c25.307,-52.666 47.688,-106.475 72.374,-159.372l415.244,-897.532c26.604,-49.524 49.064,-103.53 73.832,-154.226l204.733,-424.621c76.663,2.221 153.208,0.44 229.862,-0.963c-10.351,27.28 -26.254,53.601 -39.29,79.8c-22.488,45.199 -44.166,90.757 -66.956,135.815l-180.838,364.659l-299.15,606.351c-49.07,103.707 -98.85,207.07 -149.339,310.09c-28.235,60.643 -56.747,121.159 -85.534,181.549l-50.314,103.251c-9.892,20.152 -19.473,44.004 -33.012,61.806c-5.31,6.978 -13.422,13.292 -22.319,18.304c-13.976,8.618 -32.666,12.963 -52.433,14.546c-36.481,4.303 -81.519,3.342 -108.091,-14.105c-7.6,-4.991 -13.646,-11.024 -18.803,-17.771c-0.689,-0.792 -1.344,-1.594 -1.96,-2.404c-13.54,-17.802 -23.121,-41.654 -33.012,-61.806l-50.315,-103.251c-19.606,-41.13 -39.085,-82.319 -58.435,-123.567c-59.798,-121.26 -118.61,-242.997 -176.438,-365.212l-69.377,-153.793l109.284,-221.508Z" style="fill:#074c5f;"/><path d="M1335.47,1831.74c11.778,-26.504 23.481,-53.036 35.756,-79.342l415.219,-897.477c0.347,-0.751 0.718,-1.493 1.11,-2.222c26.335,-49.025 48.533,-102.502 73.048,-152.691l204.69,-424.534c7.138,-14.804 22.311,-24.029 38.739,-23.553c76.006,2.202 151.895,0.418 227.893,-0.974c13.827,-0.253 26.879,6.371 34.837,17.68c7.959,11.31 9.788,25.832 4.882,38.762c-10.831,28.544 -27.303,56.166 -40.943,83.579c-22.503,45.23 -44.198,90.816 -67.001,135.906l-180.749,364.48l-298.981,606.009c-49.046,103.651 -98.798,206.958 -149.259,309.923c-28.231,60.631 -56.737,121.136 -85.519,181.514c-0.052,0.108 -0.104,0.216 -0.156,0.323l-50.314,103.251c-0.018,0.036 -0.035,0.071 -0.052,0.107c-11.029,22.469 -22.158,48.825 -37.254,68.673c-8.28,10.883 -20.555,21.123 -34.272,28.948c-18.721,11.346 -43.293,17.955 -69.449,20.136c-45.858,5.303 -101.828,1.146 -135.155,-20.737c-11.362,-7.461 -20.539,-16.363 -28.235,-26.262c-0.98,-1.161 -1.921,-2.334 -2.82,-3.515c-15.096,-19.848 -26.225,-46.204 -37.253,-68.673c-0.018,-0.036 -0.035,-0.071 -0.053,-0.107l-50.314,-103.251c-0.052,-0.107 -0.104,-0.215 -0.156,-0.323c-19.585,-41.085 -39.043,-82.23 -58.373,-123.432c-59.835,-121.341 -118.686,-243.16 -176.552,-365.455c-0.108,-0.228 -0.214,-0.458 -0.317,-0.688l-69.377,-153.793c-5.121,-11.352 -4.895,-24.4 0.615,-35.568l109.283,-221.509c7.059,-14.307 21.669,-23.328 37.623,-23.23c15.954,0.098 30.452,9.297 37.334,23.691c110.781,231.676 276.82,587.025 351.525,744.354Zm-389.115,-726.379l-109.284,221.508l69.377,153.793c57.828,122.215 116.64,243.952 176.438,365.212c19.35,41.248 38.829,82.437 58.435,123.567l50.315,103.251c9.891,20.152 19.472,44.004 33.012,61.806c0.616,0.81 1.271,1.612 1.96,2.404c5.157,6.747 11.203,12.78 18.803,17.771c26.572,17.447 71.61,18.408 108.091,14.105c19.767,-1.583 38.457,-5.928 52.433,-14.546c8.897,-5.012 17.009,-11.326 22.319,-18.304c13.539,-17.802 23.12,-41.654 33.012,-61.806l50.314,-103.251c28.787,-60.39 57.299,-120.906 85.534,-181.549c50.489,-103.02 100.269,-206.383 149.339,-310.09l299.15,-606.351l180.838,-364.659c22.79,-45.058 44.468,-90.616 66.956,-135.815c13.036,-26.199 28.939,-52.52 39.29,-79.8c-76.654,1.403 -153.199,3.184 -229.862,0.963l-204.733,424.621c-24.768,50.696 -47.228,104.702 -73.832,154.226l-415.244,897.532c-24.686,52.897 -47.067,106.706 -72.374,159.372c-5.02,-4.318 -245.107,-520.345 -390.287,-823.96Zm-279.088,-15.324l-97.317,-197.253c0,0 -180.749,-364.48 -180.749,-364.48c-22.803,-45.09 -44.498,-90.676 -67.001,-135.906c-13.64,-27.412 -30.112,-55.035 -40.943,-83.579c-4.906,-12.93 -3.077,-27.452 4.882,-38.761c7.959,-11.31 21.01,-17.934 34.837,-17.681c75.999,1.392 151.887,3.176 227.893,0.974c16.428,-0.476 31.601,8.749 38.739,23.553l204.69,424.531c19.4,39.718 37.384,81.465 57.061,121.49c5.831,11.861 5.689,25.786 -0.384,37.525c-2.033,3.931 -4.087,7.84 -6.163,11.717l-100.363,216.93c-6.739,14.566 -21.246,23.967 -37.295,24.168c-16.049,0.2 -30.786,-8.835 -37.887,-23.228Zm37.366,-18.436l100.878,-218.042c2.178,-4.055 4.329,-8.14 6.455,-12.251c-19.709,-40.091 -37.723,-81.908 -57.157,-121.687l-204.733,-424.621c-76.663,2.221 -153.207,0.44 -229.862,-0.963c10.351,27.28 26.254,53.601 39.29,79.8c22.488,45.199 44.166,90.757 66.956,135.815l180.838,364.659l97.335,197.29Z" style="fill:#fff;"/><path d="M412.334,2113.18l-18.752,38.339c-17.135,35.034 -59.491,49.566 -94.525,32.431l-31.739,-15.524c-35.034,-17.136 -49.566,-59.491 -32.431,-94.526l70.276,-143.681c0.989,-2.137 1.967,-4.137 2.928,-5.987l51.692,-105.686c10.013,-22.547 20.043,-45.086 30.485,-67.462l415.245,-897.532c26.604,-49.524 49.064,-103.53 73.832,-154.225l204.733,-424.622c76.662,2.222 153.207,0.441 229.862,-0.963c-10.351,27.28 -26.254,53.601 -39.291,79.8c-22.487,45.2 -44.165,90.757 -66.956,135.815l-180.837,364.659l-299.15,606.351c-32.782,69.284 -65.881,138.414 -99.297,207.39c-1.184,4.81 -2.895,9.567 -5.16,14.197l-80.05,163.667c-16.694,35.505 -33.483,70.967 -50.366,106.385l-50.315,103.251c-9.188,18.721 -18.109,40.634 -30.184,57.923Z" style="fill:#074c5f;stroke:#fff;stroke-width:41.67px;"/><g><path d="M1680.38,877.84l-0,152.731c-0,56.08 -3.516,97.2 -10.547,123.36c-7.031,26.16 -22.071,50.597 -45.117,73.311c-23.047,22.714 -52.637,39.475 -88.77,50.284c-36.133,10.809 -77.637,16.213 -124.512,16.213c-52.343,0 -96.679,-4.621 -133.007,-13.863c-36.329,-9.242 -64.551,-23.184 -84.668,-41.825c-20.118,-18.641 -34.473,-41.198 -43.067,-67.672c-8.594,-26.473 -12.89,-66.183 -12.89,-119.13l-0,-159.781c-0,-57.96 7.812,-103.231 23.437,-135.813c15.625,-32.583 43.75,-58.743 84.375,-78.481c40.625,-19.737 92.578,-29.606 155.859,-29.606c53.125,-0 98.731,6.344 136.817,19.032c38.086,12.689 67.48,29.215 88.183,49.579c20.704,20.365 34.864,41.355 42.481,62.973c7.617,21.617 11.426,54.513 11.426,98.688Zm-236.719,-46.995c-0,-31.956 -2.149,-52.085 -6.445,-60.387c-4.297,-8.302 -13.477,-12.454 -27.539,-12.454c-14.063,0 -23.438,4.152 -28.125,12.454c-4.688,8.302 -7.032,28.431 -7.032,60.387l0,281.496c0,29.45 2.344,48.639 7.032,57.568c4.687,8.929 13.867,13.394 27.539,13.394c14.062,-0 23.339,-4.073 27.832,-12.219c4.492,-8.146 6.738,-25.69 6.738,-52.634l-0,-287.605Z" style="fill:#074d5f;fill-rule:nonzero;"/><path d="M1722.05,877.84l0,152.731c0,61.016 -4.324,105.712 -11.975,134.175c-8.814,32.793 -27.218,63.7 -56.108,92.173c-27.589,27.19 -62.822,47.587 -106.076,60.526c-39.605,11.847 -85.073,17.961 -136.453,17.961c-56.395,-0 -104.14,-5.192 -143.281,-15.15c-44.226,-11.251 -78.224,-28.949 -102.715,-51.642c-25.384,-23.523 -43.533,-51.965 -54.377,-85.37c-9.527,-29.348 -14.926,-73.299 -14.926,-131.995l-0,-159.781c-0,-65.72 9.817,-116.885 27.534,-153.83c19.345,-40.34 53.439,-73.504 103.737,-97.941c45.406,-22.061 103.338,-33.796 174.067,-33.796c58.255,0 108.223,7.255 149.987,21.169c45.166,15.047 79.68,35.255 104.232,59.405c25.823,25.4 43.059,51.866 52.56,78.829c8.693,24.671 13.794,62.123 13.794,112.536Zm-41.666,-0c-0,-44.175 -3.809,-77.071 -11.426,-98.688c-7.617,-21.618 -21.777,-42.608 -42.481,-62.973c-20.703,-20.364 -50.097,-36.89 -88.183,-49.579c-38.086,-12.688 -83.692,-19.032 -136.817,-19.032c-63.281,-0 -115.234,9.869 -155.859,29.606c-40.625,19.738 -68.75,45.898 -84.375,78.481c-15.625,32.582 -23.437,77.853 -23.437,135.813l-0,159.781c-0,52.947 4.296,92.657 12.89,119.13c8.594,26.474 22.949,49.031 43.067,67.672c20.117,18.641 48.339,32.583 84.668,41.825c36.328,9.242 80.664,13.863 133.007,13.863c46.875,0 88.379,-5.404 124.512,-16.213c36.133,-10.809 65.723,-27.57 88.77,-50.284c23.046,-22.714 38.086,-47.151 45.117,-73.311c7.031,-26.16 10.547,-67.28 10.547,-123.36l-0,-152.731Zm-236.719,-46.995l-0,287.605c-0,26.944 -2.246,44.488 -6.738,52.634c-4.493,8.146 -13.77,12.219 -27.832,12.219c-13.672,-0 -22.852,-4.465 -27.539,-13.394c-4.688,-8.929 -7.032,-28.118 -7.032,-57.568l0,-281.496c0,-31.956 2.344,-52.085 7.032,-60.387c4.687,-8.302 14.062,-12.454 28.125,-12.454c14.062,0 23.242,4.152 27.539,12.454c4.296,8.302 6.445,28.431 6.445,60.387Z" style="fill:#fff;"/><path d="M2300.3,658.846l-0,623.614l-240.821,0l4.102,-51.693c-16.406,20.991 -36.621,36.734 -60.645,47.229c-24.023,10.495 -51.66,15.743 -82.91,15.743c-35.547,0 -65.039,-5.013 -88.476,-15.038c-23.438,-10.026 -40.723,-23.341 -51.856,-39.945c-11.133,-16.605 -18.066,-33.914 -20.801,-51.929c-2.734,-18.014 -4.101,-53.808 -4.101,-107.382l-0,-420.599l236.718,0l0,424.359c0,48.56 1.856,77.384 5.567,86.469c3.711,9.086 13.769,13.629 30.176,13.629c17.578,-0 28.027,-4.7 31.347,-14.099c3.321,-9.399 4.981,-39.632 4.981,-90.699l-0,-419.659l236.719,0Z" style="fill:#074d5f;fill-rule:nonzero;"/><path d="M2027.55,637.914c7.218,-12.399 20.653,-20.734 36.035,-20.734l236.719,-0c23.011,-0 41.666,18.655 41.666,41.666l0,623.614c0,23.012 -18.655,41.667 -41.666,41.667l-240.821,0c-11.273,0 -22.05,-4.567 -29.884,-12.632c-3.267,1.643 -6.593,3.204 -9.978,4.683c-28.874,12.614 -62.031,19.228 -99.591,19.228c-42.169,-0 -77.059,-6.503 -104.863,-18.396c-31.908,-13.649 -54.92,-32.445 -70.077,-55.051c-14.752,-22.002 -23.764,-45.008 -27.388,-68.879c-2.893,-19.065 -4.573,-56.937 -4.573,-113.635l0,-420.599c0,-23.011 18.655,-41.666 41.667,-41.666l236.718,-0c15.382,-0 28.817,8.335 36.036,20.734Zm272.754,20.932l-236.719,0l-0,419.659c-0,51.067 -1.66,81.3 -4.981,90.699c-3.32,9.399 -13.769,14.099 -31.347,14.099c-16.407,-0 -26.465,-4.543 -30.176,-13.629c-3.711,-9.085 -5.567,-37.909 -5.567,-86.469l0,-424.359l-236.718,0l-0,420.599c-0,53.574 1.367,89.368 4.101,107.382c2.735,18.015 9.668,35.324 20.801,51.929c11.133,16.604 28.418,29.919 51.856,39.945c23.437,10.025 52.929,15.038 88.476,15.038c31.25,0 58.887,-5.248 82.91,-15.743c24.024,-10.495 44.239,-26.238 60.645,-47.229l-4.102,51.693l240.821,0l-0,-623.614Z" style="fill:#fff;"/><path d="M2621.98,658.846l-9.375,81.77c34.375,-58.586 84.18,-89.602 149.414,-93.048l0,219.463c-43.359,0 -75.195,4.7 -95.508,14.098c-20.312,9.399 -32.812,22.479 -37.5,39.241c-4.687,16.761 -7.031,55.374 -7.031,115.84l0,246.25l-236.719,0l0,-623.614l236.719,0Z" style="fill:#074d5f;fill-rule:nonzero;"/><path d="M2656.71,635.826c29.932,-17.889 64.319,-27.818 103.11,-29.867c11.416,-0.603 22.579,3.511 30.873,11.379c8.295,7.868 12.992,18.798 12.992,30.23l-0,219.463c-0,23.012 -18.655,41.667 -41.667,41.667c-35.337,-0 -61.456,2.586 -78.01,10.246c-7.306,3.38 -13.185,6.619 -14.87,12.648c-4.232,15.13 -5.492,50.035 -5.492,104.618l-0,246.25c-0,23.012 -18.655,41.667 -41.667,41.667l-236.719,0c-23.011,0 -41.666,-18.655 -41.666,-41.667l-0,-623.614c-0,-23.011 18.655,-41.666 41.666,-41.666l236.719,-0c11.877,-0 23.19,5.069 31.096,13.932c1.331,1.493 2.544,3.069 3.635,4.714Zm-34.731,23.02l-236.719,0l0,623.614l236.719,0l0,-246.25c0,-60.466 2.344,-99.079 7.031,-115.84c4.688,-16.762 17.188,-29.842 37.5,-39.241c20.313,-9.398 52.149,-14.098 95.508,-14.098l0,-219.463c-65.234,3.446 -115.039,34.462 -149.414,93.048l9.375,-81.77Z" style="fill:#fff;"/></g><g><path d="M2302.28,1814.03l-0,152.731c-0,56.08 -3.516,97.2 -10.547,123.36c-7.031,26.16 -22.071,50.597 -45.117,73.311c-23.047,22.714 -52.637,39.476 -88.77,50.284c-36.133,10.809 -77.637,16.213 -124.512,16.213c-52.343,0 -96.679,-4.621 -133.007,-13.863c-36.329,-9.242 -64.551,-23.184 -84.668,-41.825c-20.118,-18.641 -34.473,-41.198 -43.067,-67.672c-8.594,-26.473 -12.89,-66.183 -12.89,-119.13l-0,-159.781c-0,-57.959 7.812,-103.23 23.437,-135.813c15.625,-32.583 43.75,-58.743 84.375,-78.481c40.625,-19.737 92.578,-29.606 155.859,-29.606c53.125,0 98.731,6.344 136.817,19.033c38.086,12.688 67.48,29.214 88.183,49.579c20.704,20.364 34.864,41.355 42.481,62.972c7.617,21.617 11.426,54.513 11.426,98.688Zm-236.719,-46.994c-0,-31.956 -2.149,-52.086 -6.445,-60.388c-4.297,-8.302 -13.477,-12.453 -27.539,-12.453c-14.063,-0 -23.438,4.151 -28.125,12.453c-4.688,8.302 -7.032,28.432 -7.032,60.388l0,281.495c0,29.45 2.344,48.639 7.032,57.568c4.687,8.929 13.867,13.394 27.539,13.394c14.062,-0 23.339,-4.073 27.832,-12.219c4.492,-8.145 6.738,-25.69 6.738,-52.633l-0,-287.605Z" style="fill:#074d5f;fill-rule:nonzero;"/><path d="M2343.95,1814.03l0,152.731c0,61.017 -4.324,105.713 -11.975,134.176c-8.814,32.792 -27.218,63.699 -56.108,92.172c-27.589,27.19 -62.822,47.587 -106.076,60.526c-39.605,11.848 -85.073,17.961 -136.453,17.961c-56.395,-0 -104.14,-5.192 -143.281,-15.15c-44.226,-11.251 -78.224,-28.948 -102.715,-51.642c-25.384,-23.522 -43.533,-51.964 -54.377,-85.37c-9.527,-29.348 -14.926,-73.299 -14.926,-131.995l-0,-159.781c-0,-65.72 9.817,-116.884 27.534,-153.83c19.345,-40.34 53.439,-73.504 103.737,-97.941c45.406,-22.061 103.338,-33.796 174.067,-33.796c58.255,0 108.223,7.255 149.987,21.169c45.166,15.047 79.68,35.255 104.232,59.405c25.823,25.4 43.059,51.867 52.56,78.83c8.693,24.67 13.794,62.122 13.794,112.535Zm-41.666,-0c-0,-44.175 -3.809,-77.071 -11.426,-98.688c-7.617,-21.617 -21.777,-42.608 -42.481,-62.972c-20.703,-20.365 -50.097,-36.891 -88.183,-49.579c-38.086,-12.689 -83.692,-19.033 -136.817,-19.033c-63.281,0 -115.234,9.869 -155.859,29.606c-40.625,19.738 -68.75,45.898 -84.375,78.481c-15.625,32.583 -23.437,77.854 -23.437,135.813l-0,159.781c-0,52.947 4.296,92.657 12.89,119.13c8.594,26.474 22.949,49.031 43.067,67.672c20.117,18.641 48.339,32.583 84.668,41.825c36.328,9.242 80.664,13.863 133.007,13.863c46.875,0 88.379,-5.404 124.512,-16.213c36.133,-10.808 65.723,-27.57 88.77,-50.284c23.046,-22.714 38.086,-47.151 45.117,-73.311c7.031,-26.16 10.547,-67.28 10.547,-123.36l-0,-152.731Zm-236.719,-46.994l-0,287.605c-0,26.943 -2.246,44.488 -6.738,52.633c-4.493,8.146 -13.77,12.219 -27.832,12.219c-13.672,-0 -22.852,-4.465 -27.539,-13.394c-4.688,-8.929 -7.032,-28.118 -7.032,-57.568l0,-281.495c0,-31.956 2.344,-52.086 7.032,-60.388c4.687,-8.302 14.062,-12.453 28.125,-12.453c14.062,-0 23.242,4.151 27.539,12.453c4.296,8.302 6.445,28.432 6.445,60.388Z" style="fill:#fff;"/><path d="M2623.96,1457.81l0,99.158l-243.75,0l0,-99.158l243.75,0Zm0,137.224l0,623.614l-243.75,-0l0,-623.614l243.75,-0Z" style="fill:#074d5f;fill-rule:nonzero;"/><path d="M2661.04,1576.01c2.935,5.705 4.591,12.175 4.591,19.033l0,623.614c0,23.012 -18.655,41.666 -41.667,41.666l-243.75,0c-23.012,0 -41.666,-18.654 -41.666,-41.666l-0,-623.614c-0,-6.858 1.656,-13.328 4.591,-19.033c-2.935,-5.705 -4.591,-12.175 -4.591,-19.033l-0,-99.158c-0,-23.012 18.654,-41.666 41.666,-41.666l243.75,-0c23.012,-0 41.667,18.654 41.667,41.666l0,99.158c0,6.858 -1.656,13.328 -4.591,19.033Zm-37.076,19.033l-243.75,-0l0,623.614l243.75,-0l0,-623.614Zm0,-137.224l-243.75,0l0,99.158l243.75,0l0,-99.158Z" style="fill:#fff;"/><path d="M3232.16,1830.48l-223.242,-0l0,-71.901c0,-25.064 -2.539,-42.06 -7.617,-50.989c-5.078,-8.929 -14.453,-13.393 -28.125,-13.393c-13.672,-0 -22.851,3.916 -27.539,11.748c-4.687,7.833 -7.031,25.377 -7.031,52.634l-0,294.184c-0,22.244 3.515,38.927 10.547,50.049c7.031,11.122 17.382,16.683 31.054,16.683c16.016,-0 26.856,-5.796 32.52,-17.388c5.664,-11.592 8.496,-33.523 8.496,-65.792l-0,-74.251l210.937,-0c-0.39,49.814 -2.636,87.174 -6.738,112.081c-4.101,24.907 -17.187,50.441 -39.258,76.601c-22.07,26.16 -50.879,45.898 -86.425,59.213c-35.547,13.315 -79.493,19.972 -131.836,19.972c-66.797,0 -119.727,-9.164 -158.789,-27.491c-39.063,-18.328 -66.7,-44.018 -82.911,-77.071c-16.21,-33.053 -24.316,-79.969 -24.316,-140.748l0,-177.168c0,-52.947 6.641,-92.892 19.922,-119.836c13.281,-26.943 41.601,-50.988 84.961,-72.136c43.359,-21.147 96.094,-31.721 158.203,-31.721c61.719,0 114.453,10.495 158.203,31.486c43.75,20.991 72.852,47.464 87.305,79.421c14.453,31.956 21.679,77.227 21.679,135.813Z" style="fill:#074d5f;fill-rule:nonzero;"/><path d="M2980.28,1860.74l0,93.593c3.626,-19.317 20.581,-33.934 40.951,-33.934l210.937,0c11.108,0 21.755,4.435 29.579,12.32c7.823,7.885 12.174,18.567 12.087,29.674c-0.413,52.682 -2.953,92.183 -7.291,118.525c-5.155,31.306 -20.783,63.816 -48.524,96.698c-26.512,31.425 -60.956,55.369 -103.657,71.364c-39.505,14.798 -88.279,22.62 -146.451,22.62c-74.305,-0 -133.034,-11.049 -176.488,-31.437c-48.597,-22.801 -82.453,-55.324 -102.621,-96.444c-18.346,-37.405 -28.574,-90.313 -28.574,-159.096l0,-177.168c0,-61.177 8.87,-107.127 24.216,-138.258c16.487,-33.446 50.245,-64.913 104.069,-91.164c48.395,-23.603 107.146,-35.938 176.468,-35.938c68.789,0 127.465,12.191 176.227,35.587c54.309,26.056 89.304,60.147 107.245,99.816c16.297,36.032 25.382,86.925 25.382,152.984c0,23.012 -18.655,41.667 -41.667,41.667l-223.242,-0c-11.096,-0 -21.179,-4.338 -28.646,-11.409Zm251.888,-30.258c0,-58.586 -7.226,-103.857 -21.679,-135.813c-14.453,-31.957 -43.555,-58.43 -87.305,-79.421c-43.75,-20.991 -96.484,-31.486 -158.203,-31.486c-62.109,0 -114.844,10.574 -158.203,31.721c-43.36,21.148 -71.68,45.193 -84.961,72.136c-13.281,26.944 -19.922,66.889 -19.922,119.836l0,177.168c0,60.779 8.106,107.695 24.316,140.748c16.211,33.053 43.848,58.743 82.911,77.071c39.062,18.327 91.992,27.491 158.789,27.491c52.343,0 96.289,-6.657 131.836,-19.972c35.546,-13.315 64.355,-33.053 86.425,-59.213c22.071,-26.16 35.157,-51.694 39.258,-76.601c4.102,-24.907 6.348,-62.267 6.738,-112.081l-210.937,-0l-0,74.251c-0,32.269 -2.832,54.2 -8.496,65.792c-5.664,11.592 -16.504,17.388 -32.52,17.388c-13.672,-0 -24.023,-5.561 -31.054,-16.683c-7.032,-11.122 -10.547,-27.805 -10.547,-50.049l-0,-294.184c-0,-27.257 2.344,-44.801 7.031,-52.634c4.688,-7.832 13.867,-11.748 27.539,-11.748c13.672,-0 23.047,4.464 28.125,13.393c5.078,8.929 7.617,25.925 7.617,50.989l0,71.901l223.242,-0Z" style="fill:#fff;"/><path d="M3838.61,1917.89l-306.446,0l0,134.874c0,28.196 2.54,46.368 7.618,54.513c5.078,8.146 14.843,12.219 29.297,12.219c17.968,-0 29.98,-5.405 36.035,-16.213c6.054,-10.809 9.082,-31.721 9.082,-62.738l-0,-82.24l224.414,0l-0,46.055c-0,38.535 -3.028,68.141 -9.082,88.819c-6.055,20.677 -20.215,42.765 -42.481,66.262c-22.265,23.497 -50.488,41.12 -84.668,52.868c-34.179,11.749 -77.05,17.623 -128.613,17.623c-50,0 -94.141,-5.796 -132.422,-17.388c-38.281,-11.592 -68.066,-27.491 -89.355,-47.699c-21.289,-20.207 -36.035,-42.451 -44.239,-66.732c-8.203,-24.28 -12.304,-59.604 -12.304,-105.972l-0,-181.868c-0,-54.513 9.179,-97.513 27.539,-128.999c18.359,-31.486 48.437,-55.61 90.234,-72.371c41.797,-16.761 89.844,-25.142 144.141,-25.142c66.406,0 121.191,10.104 164.355,30.311c43.164,20.208 73.438,46.995 90.821,80.361c17.382,33.365 26.074,80.281 26.074,140.747l-0,82.71Zm-237.305,-101.507l0,-45.585c0,-32.269 -2.148,-53.103 -6.445,-62.502c-4.297,-9.399 -13.086,-14.098 -26.367,-14.098c-16.407,-0 -26.563,3.994 -30.469,11.983c-3.906,7.989 -5.86,29.528 -5.86,64.617l0,45.585l69.141,-0Z" style="fill:#074d5f;fill-rule:nonzero;"/><path d="M3875.06,1938.1c3.325,5.985 5.219,12.875 5.219,20.207l0,46.055c0,43.637 -3.904,77.113 -10.761,100.528c-7.557,25.809 -24.432,53.884 -52.223,83.212c-26.695,28.172 -60.389,49.528 -101.368,63.613c-37.794,12.991 -85.143,19.886 -142.158,19.886c-54.569,-0 -102.718,-6.525 -144.497,-19.176c-45.539,-13.79 -80.64,-33.319 -105.965,-57.357c-26.617,-25.265 -44.772,-53.26 -55.028,-83.616c-9.242,-27.353 -14.497,-67.073 -14.497,-119.309l0,-181.868c0,-63.487 11.83,-113.318 33.211,-149.987c22.653,-38.849 59.15,-69.375 110.721,-90.056c46.308,-18.57 99.491,-28.136 159.649,-28.136c73.593,0 134.186,11.848 182.022,34.242c52.666,24.656 88.897,58.134 110.106,98.845c19.786,37.979 30.788,91.173 30.788,159.999l0,82.71c0,7.333 -1.894,14.223 -5.219,20.208Zm-36.447,-20.208l-0,-82.71c-0,-60.466 -8.692,-107.382 -26.074,-140.747c-17.383,-33.366 -47.657,-60.153 -90.821,-80.361c-43.164,-20.207 -97.949,-30.311 -164.355,-30.311c-54.297,0 -102.344,8.381 -144.141,25.142c-41.797,16.761 -71.875,40.885 -90.234,72.371c-18.36,31.486 -27.539,74.486 -27.539,128.999l-0,181.868c-0,46.368 4.101,81.692 12.304,105.972c8.204,24.281 22.95,46.525 44.239,66.732c21.289,20.208 51.074,36.107 89.355,47.699c38.281,11.592 82.422,17.388 132.422,17.388c51.563,0 94.434,-5.874 128.613,-17.623c34.18,-11.748 62.403,-29.371 84.668,-52.868c22.266,-23.497 36.426,-45.585 42.481,-66.262c6.054,-20.678 9.082,-50.284 9.082,-88.819l-0,-46.055l-224.414,0l-0,82.24c-0,31.017 -3.028,51.929 -9.082,62.738c-6.055,10.808 -18.067,16.213 -36.035,16.213c-14.454,-0 -24.219,-4.073 -29.297,-12.219c-5.078,-8.145 -7.618,-26.317 -7.618,-54.513l0,-134.874l306.446,0Zm-237.305,-101.507l-69.141,-0l0,-45.585c0,-35.089 1.954,-56.628 5.86,-64.617c3.906,-7.989 14.062,-11.983 30.469,-11.983c13.281,-0 22.07,4.699 26.367,14.098c4.297,9.399 6.445,30.233 6.445,62.502l0,45.585Z" style="fill:#fff;"/></g></svg>